<svg width="237" height="81" viewBox="0 0 237 81" fill="none" xmlns="http://www.w3.org/2000/svg">
<g clip-path="url(#clip0_2001_5485)">
<path d="M66.0265 11.692C35.2938 7.21877 10.5369 24.3661 2 33.499C2 38.7178 4.56106 53.6286 14.8053 71.5215H51.5509C73.821 71.5215 66.0265 78.7905 105.556 71.5215C118.361 64.2525 117.248 71.5215 138.404 71.5215C159.561 71.5215 148.426 80.4679 169.582 78.7905C190.739 77.113 203.544 75.9947 220.804 71.5215C238.063 67.0483 231.939 57.5427 234.722 33.499C237.506 9.45529 219.133 33.499 189.625 11.692C160.118 -10.115 174.036 11.692 148.426 11.692C122.815 11.692 104.442 17.2835 66.0265 11.692Z" fill="#703F3F" stroke="#945858" stroke-width="4"/>
<path d="M94.689 28.625C94.975 28.677 95.612 29.678 96.6 31.628C97.588 33.552 98.797 36.048 100.227 39.116L101.475 41.729C102.021 41.131 102.528 40.442 102.996 39.662C103.464 38.856 104.049 37.777 104.751 36.425C105.557 34.891 106.116 33.903 106.428 33.461C107.676 31.563 109.028 29.548 110.484 27.416C110.666 27.13 110.991 26.935 111.459 26.831C111.537 26.805 111.667 26.792 111.849 26.792C112.473 26.792 113.162 27.052 113.916 27.572C114.696 28.092 115.203 28.625 115.437 29.171C115.489 29.275 115.515 29.47 115.515 29.756C115.515 30.016 115.502 30.211 115.476 30.341C115.424 30.575 115.359 30.874 115.281 31.238C115.229 31.576 115.177 31.979 115.125 32.447C114.293 38.791 113.695 43.549 113.331 46.721C113.227 47.449 113.175 48.268 113.175 49.178L113.097 50.426C113.071 50.686 113.058 50.985 113.058 51.323C113.058 51.661 113.019 51.895 112.941 52.025C112.863 52.155 112.72 52.22 112.512 52.22C112.356 52.22 112.122 52.181 111.81 52.103C110.978 51.921 110.341 51.596 109.899 51.128C109.457 50.634 109.21 49.958 109.158 49.1C109.132 48.658 109.119 47.969 109.119 47.033C109.119 46.071 109.145 44.602 109.197 42.626L109.236 40.481L109.314 37.4C109.08 37.608 108.482 38.427 107.52 39.857C106.584 41.261 105.661 42.73 104.751 44.264C103.841 45.798 103.243 46.981 102.957 47.813C102.697 48.463 102.437 48.944 102.177 49.256C101.943 49.568 101.657 49.724 101.319 49.724C101.007 49.724 100.604 49.581 100.11 49.295C98.706 48.437 97.848 47.254 97.536 45.746C97.042 43.432 96.431 41.027 95.703 38.531C95.573 38.063 95.313 37.426 94.923 36.62C94.559 35.814 94.325 35.307 94.221 35.099L93.714 34.085C89.918 39.129 87.344 43.757 85.992 47.969C85.732 48.853 85.485 49.49 85.251 49.88C85.017 50.244 84.744 50.426 84.432 50.426C83.938 50.426 83.236 49.984 82.326 49.1C81.624 48.476 81.273 47.774 81.273 46.994C81.273 46.578 81.351 46.162 81.507 45.746C82.599 42.522 84.224 39.467 86.382 36.581L87.591 34.982C89.229 32.824 90.464 31.134 91.296 29.912C91.92 29.002 92.752 28.547 93.792 28.547C93.974 28.547 94.273 28.573 94.689 28.625ZM123.064 34.826C123.012 34.982 122.817 35.151 122.479 35.333C122.167 35.515 121.907 35.684 121.699 35.84L120.607 35.255C119.541 34.683 118.813 34.228 118.423 33.89C118.215 33.734 118.111 33.539 118.111 33.305C118.111 33.149 118.163 33.019 118.267 32.915C118.397 32.785 118.579 32.72 118.813 32.72C119.827 32.72 121.062 32.98 122.518 33.5C122.674 33.526 122.817 33.708 122.947 34.046C123.077 34.358 123.116 34.618 123.064 34.826ZM119.554 42.08C119.632 41.742 119.684 41.495 119.71 41.339C119.736 41.183 119.749 41.014 119.749 40.832C119.749 40.468 119.853 40.182 120.061 39.974C120.295 39.766 120.724 39.662 121.348 39.662C122.076 39.662 122.713 39.896 123.259 40.364C123.831 40.806 124.182 41.391 124.312 42.119C124.39 42.483 124.442 42.886 124.468 43.328C124.494 43.77 124.507 44.056 124.507 44.186L125.053 50.855C125.131 51.557 125.027 52.103 124.741 52.493C124.481 52.857 123.974 53.039 123.22 53.039C122.57 53.039 122.011 52.857 121.543 52.493C121.101 52.129 120.828 51.661 120.724 51.089L119.71 42.821L119.554 42.08ZM135.719 40.169C135.719 40.221 135.745 40.299 135.797 40.403C135.875 40.507 135.94 40.598 135.992 40.676L137.24 38.882C137.708 38.206 138.293 37.803 138.995 37.673C139.723 37.517 140.334 37.634 140.828 38.024C142.05 38.986 142.895 40.065 143.363 41.261L144.104 43.133L145.43 50.075C145.56 50.803 145.807 51.609 146.171 52.493C146.379 53.065 146.522 53.494 146.6 53.78L146.951 55.106C146.275 55.314 145.716 55.418 145.274 55.418C143.662 55.418 142.7 54.69 142.388 53.234C142.102 51.778 141.764 50.049 141.374 48.047L140.984 46.019C140.36 44.121 139.684 43.185 138.956 43.211C138.228 43.211 137.695 43.497 137.357 44.069C136.863 44.875 136.577 45.746 136.499 46.682C136.447 47.592 136.421 48.801 136.421 50.309C136.291 50.881 136.096 51.284 135.836 51.518C135.576 51.726 135.173 51.83 134.627 51.83C133.379 51.83 132.716 51.219 132.638 49.997C132.534 48.541 132.482 46.903 132.482 45.083C132.482 44.563 132.43 44.108 132.326 43.718C132.222 43.328 131.988 43.133 131.624 43.133C131.468 43.133 131.26 43.146 131 43.172C130.766 43.198 130.584 43.198 130.454 43.172C129.986 43.068 129.583 42.977 129.245 42.899C128.907 42.821 128.595 42.704 128.309 42.548C128.049 42.366 127.945 42.067 127.997 41.651C128.075 41.209 128.218 40.793 128.426 40.403C128.608 40.143 128.803 39.896 129.011 39.662C129.245 39.402 129.544 39.116 129.908 38.804C130.87 37.972 131.91 37.543 133.028 37.517C133.86 37.491 134.458 37.751 134.822 38.297C135.212 38.843 135.511 39.467 135.719 40.169ZM149.852 38.453C149.67 38.245 149.54 38.024 149.462 37.79C149.41 37.556 149.358 37.231 149.306 36.815C149.54 36.269 149.969 35.996 150.593 35.996C150.905 36.048 151.126 36.074 151.256 36.074C151.776 36.074 152.101 35.918 152.231 35.606C152.361 35.294 152.426 34.93 152.426 34.514C152.426 34.098 152.426 33.773 152.426 33.539L152.543 31.199C152.569 30.679 152.595 30.042 152.621 29.288C152.673 28.508 152.725 27.611 152.777 26.597C152.803 26.051 152.933 25.648 153.167 25.388C153.427 25.128 153.778 24.998 154.22 24.998C154.532 24.998 154.779 25.024 154.961 25.076C156.027 25.31 156.742 25.648 157.106 26.09C157.47 26.532 157.717 27.195 157.847 28.079C157.873 28.261 157.847 28.638 157.769 29.21L157.067 35.294C157.041 35.45 157.002 35.645 156.95 35.879C156.898 36.087 156.872 36.243 156.872 36.347C156.872 36.581 157.002 36.737 157.262 36.815C157.522 36.893 158.003 36.919 158.705 36.893C159.901 36.633 160.811 36.464 161.435 36.386C161.565 36.36 161.773 36.347 162.059 36.347C162.371 36.347 162.579 36.386 162.683 36.464C162.787 36.516 162.865 36.672 162.917 36.932C162.995 37.166 163.034 37.439 163.034 37.751C163.034 38.037 162.995 38.297 162.917 38.531C162.865 38.765 162.787 38.895 162.683 38.921C161.981 39.129 161.149 39.298 160.187 39.428C159.043 39.636 158.198 39.818 157.652 39.974C157.366 40.052 157.08 40.247 156.794 40.559C156.508 40.871 156.352 41.157 156.326 41.417C156.274 42.691 156.235 43.991 156.209 45.317C156.183 46.331 156.222 47.345 156.326 48.359C156.404 49.217 156.573 49.841 156.833 50.231C157.093 50.595 157.483 50.777 158.003 50.777C158.419 50.777 159.017 50.634 159.797 50.348C160.213 50.166 160.577 50.075 160.889 50.075C161.383 50.075 161.734 50.348 161.942 50.894C162.02 51.076 162.059 51.258 162.059 51.44C162.059 51.778 161.929 52.051 161.669 52.259C161.435 52.467 161.11 52.649 160.694 52.805C159.914 53.091 159.121 53.247 158.315 53.273C157.223 53.273 156.196 53.013 155.234 52.493C154.272 51.947 153.505 51.193 152.933 50.231C152.387 49.269 152.153 48.164 152.231 46.916C152.257 46.422 152.27 45.642 152.27 44.576C152.27 42.886 152.205 41.17 152.075 39.428C152.049 39.272 151.958 39.168 151.802 39.116C151.646 39.038 151.386 38.96 151.022 38.882C150.424 38.778 150.034 38.635 149.852 38.453Z" fill="white"/>
</g>
<defs>
<clipPath id="clip0_2001_5485">
<rect width="237" height="81" fill="white"/>
</clipPath>
</defs>
</svg>
